# xmcd CD database file
# Copyright (C) 1996 Ti Kan
#
# Track frame offsets:
#	150
#	19677
#	41627
#	61517
#	85160
#	107837
#	127190
#	147952
#	167060
#	191602
#	212987
#
# Disc length: 3222 seconds
#
# Revision: 1
# Processed by: cddbd v1.4b41PL1 Copyright (c) Steve Scherf et al.
# Submitted via: EasyCD 2.21 - (C) 1996 Greg Leichner
#
DISCID=990c940b
DTITLE=Little Feat - Shake Me Up
DYEAR=1900
DGENRE=
TTITLE0=Spider's Blues (Might Need It Sometime)
TTITLE1=Shake Me Up
TTITLE2=Things Happen
TTITLE3=Mojo Maiku
TTITLE4=Loved And Lied To
TTITLE5=Don't Try So Hard
TTITLE6=Boom Box Car
TTITLE7=Fast and Furious
TTITLE8=Livin' On Dreams
TTITLE9=Clownin'
TTITLE10=Down In Flames
EXTD=
EXTT0=
EXTT1=
EXTT2=
EXTT3=
EXTT4=
EXTT5=
EXTT6=
EXTT7=
EXTT8=
EXTT9=
EXTT10=
PLAYORDER=
